# xmcd
#
# Track frame offsets:
# 150
# 16156
# 45934
# 61708
# 77352
# 93149
# 115892
# 142809
# 155059
# 171923
# 191378
# 207826
# 225890
# 247427
# 259913
#
# Disc length: 3799 seconds
#
#
# Revision: 0
# Processed by: cddbd v1.5.2PL0 Copyright (c) Steve Scherf et al.
# Submitted via: FreeRIP 2.95 
#
DISCID=b30ed50f
DTITLE=Living The Blues  Singing Blues CD2
DYEAR=1900
DGENRE=Blues
TTITLE0=Jimmy Rogers  Sloppy Drunk
TTITLE1=Phillip Walker  Play mMe Some Blues
TTITLE2=John Lee Hoocker  Mai Lee
TTITLE3=Bessie Smith Do your Duty
TTITLE4=John Littlejohn  Slidin' Home
TTITLE5=Johnny Rawls  Back In Your Arms
TTITLE6=Carey Bell  Brought Up The Hard Way
TTITLE7=Esther Phillips  And I Love Him
TTITLE8=Sonny Boy Williamson  Nine Below Zero
TTITLE9=Steady Rollin' Bob Margolin  Wee Wee Hours
TTITLE10=Lou Rawls  At Last
TTITLE11=U.P. Wilson  The Good, The Bad, The Blues
TTITLE12=B.B. King Katie  Since I Met You Baby
TTITLE13=Bonnie Bramlett  Two Steps From The Blues
TTITLE14=Little Feat  On Your Way Down
EXTD=
EXTT0=
EXTT1=
EXTT2=
EXTT3=
EXTT4=
EXTT5=
EXTT6=
EXTT7=
EXTT8=
EXTT9=
EXTT10=
EXTT11=
EXTT12=
EXTT13=
EXTT14=
PLAYORDER=
